<svg width="34" height="35" viewBox="0 0 34 35" fill="none" xmlns="http://www.w3.org/2000/svg">
<path d="M15.4084 22.6635L12.2586 25.9012C11.5946 26.5837 10.539 26.5837 9.85798 25.9187C9.6707 25.7262 9.48341 25.5511 9.29613 25.3586C7.54246 23.5386 5.95906 21.631 4.54591 19.6359C3.14979 17.6408 2.02608 15.6457 1.20884 13.6681C0.408621 11.673 0 9.76544 0 7.94536C0 6.7553 0.20431 5.61775 0.612931 4.56771C1.02155 3.50016 1.66854 2.52011 2.57091 1.64507C3.66056 0.542525 4.85238 0 6.11229 0C6.58902 0 7.06574 0.105005 7.49139 0.315014C7.93406 0.525024 8.32565 0.840038 8.63212 1.29506L12.5821 7.01782C12.8886 7.45534 13.1099 7.85785 13.2632 8.24287C13.4164 8.61039 13.5015 8.9779 13.5015 9.31042C13.5015 9.73044 13.3823 10.1505 13.144 10.553C12.9226 10.9555 12.5991 11.3755 12.1905 11.7955L10.8966 13.1781C10.7093 13.3706 10.6241 13.5981 10.6241 13.8781C10.6241 14.0181 10.6412 14.1406 10.6752 14.2806C10.7263 14.4206 10.7774 14.5257 10.8114 14.6307C11.1179 15.2082 11.6457 15.9607 12.3948 16.8708C13.161 17.7808 13.9782 18.7083 14.8636 19.6359C15.0338 19.8109 15.2211 19.9859 15.3914 20.1609C16.0724 20.8434 16.0895 21.9635 15.4084 22.6635Z" fill="white"/>
<path d="M34.0001 28.5772C34.0001 29.0673 33.915 29.5748 33.7447 30.0648C33.6936 30.2048 33.6425 30.3448 33.5744 30.4848C33.285 31.1148 32.9104 31.7099 32.4167 32.2699C31.5824 33.2149 30.663 33.8975 29.6244 34.335C29.6074 34.335 29.5904 34.3525 29.5734 34.3525C28.5688 34.7725 27.4792 35 26.3044 35C24.5677 35 22.7119 34.58 20.7539 33.7225C18.796 32.8649 16.838 31.7099 14.897 30.2573C14.233 29.7498 13.569 29.2423 12.9391 28.6997L18.5065 22.977C18.9833 23.3445 19.4089 23.6245 19.7664 23.817C19.8516 23.852 19.9537 23.9045 20.0729 23.957C20.2091 24.0095 20.3453 24.027 20.4986 24.027C20.788 24.027 21.0093 23.922 21.1966 23.7295L22.4906 22.417C22.9162 21.9794 23.3249 21.6469 23.7165 21.4369C24.108 21.1919 24.4996 21.0694 24.9253 21.0694C25.2488 21.0694 25.5893 21.1394 25.9639 21.2969C26.3384 21.4544 26.73 21.6819 27.1557 21.9794L32.7912 26.0921C33.2339 26.4071 33.5404 26.7747 33.7277 27.2122C33.8979 27.6497 34.0001 28.0872 34.0001 28.5772Z" fill="white"/>
</svg>
